Coordinates
version=1
nRows=14
nColumns=36
inDegrees=yes

Units are S.I. units (second, meters, Newtons, ...)
If the header above contains a line with 'inDegrees', this indicates whether rotational values are in degrees (yes) or radians (no).

endheader
time	pelvis_tilt	pelvis_list	pelvis_rotation	pelvis_tx	pelvis_ty	pelvis_tz	hip_flexion_r	hip_adduction_r	hip_rotation_r	knee_angle_r	knee_angle_r_beta	ankle_angle_r	subtalar_angle_r	mtp_angle_r	hip_flexion_l	hip_adduction_l	hip_rotation_l	knee_angle_l	knee_angle_l_beta	ankle_angle_l	subtalar_angle_l	mtp_angle_l	lumbar_extension	lumbar_bending	lumbar_rotation	arm_flex_r	arm_add_r	arm_rot_r	elbow_flex_r	pro_sup_r	arm_flex_l	arm_add_l	arm_rot_l	elbow_flex_l	pro_sup_l
      1.15000000	     -9.35505648	      0.15251214	     -0.09684386	     -0.42488893	      1.18495531	     -0.57972134	     27.70609279	     -3.79502102	     -5.83668415	      6.81172104	      0.11888696	    -25.53103000	     -4.00488932	     -6.48078083	     28.50602698	     -6.53249087	    -11.82721311	      3.11319589	      0.05433552	    -28.18170739	      7.03936744	     -6.48078083	    -20.56006758	     -3.26316461	      2.49368135	    -44.36312140	    -27.79755865	    -55.42951532	    141.41014842	     99.38448360	     -9.11300017	    -45.17932734	    -19.78662517	    140.28976915	    111.49855605
      1.16000000	     -8.97856003	      0.12723079	      0.07020558	     -0.41317238	      1.16187809	     -0.57953414	     27.61434837	     -3.82220188	     -5.84044079	      7.36846772	      0.12860402	    -25.24031785	     -3.73621499	     -6.50067753	     28.75958231	     -6.66343927	    -10.62929924	      4.30915266	      0.07520890	    -28.35354663	      6.98563063	     -6.50067753	    -20.60583674	     -3.07247406	      3.05727874	    -47.77705949	    -26.51889977	    -59.21591378	    143.44204973	     99.17107293	    -10.03927265	    -47.84863235	    -22.74604808	    141.63320335	    111.05290622
      1.17000000	     -8.55665874	      0.12658438	      0.29790297	     -0.40142817	      1.13794823	     -0.57941975	     27.50175458	     -3.91584666	     -5.82903630	      8.08972129	      0.14119227	    -25.44103711	     -2.99230609	     -6.51983204	     29.08259304	     -6.72162519	     -9.36769040	      5.93071994	      0.10351059	    -28.84719673	      6.59161961	     -6.51983204	    -20.63019096	     -2.90708090	      3.62905160	    -50.94482989	    -24.85017278	    -62.57591659	    145.37797695	     98.93757938	    -10.86647108	    -50.70722565	    -25.46931201	    142.70838357	    110.54399062
      1.18000000	     -8.05872779	     -0.00853359	      0.53291693	     -0.38985307	      1.11312426	     -0.57949793	     27.44531644	     -3.91686503	     -6.11920188	      9.18627650	      0.16033077	    -25.53953604	     -1.59408237	     -6.60414638	     29.46808542	     -6.85451716	     -7.71747835	      8.01541639	      0.13989541	    -29.58217534	      5.30031510	     -6.60414638	    -20.74481991	     -2.52437722	      4.34355200	    -53.95946275	    -22.99952106	    -66.33504914	    147.16526600	     97.66160462	    -11.20632615	    -53.22688595	    -27.96397142	    143.69204728	    108.40050867
      1.19000000	     -7.73598998	     -0.02079573	      0.81542282	     -0.37810040	      1.08723263	     -0.57943076	     27.65116895	     -4.02252702	     -6.20168152	     10.65368698	      0.18594192	    -25.31343988	     -0.62879396	     -6.83874020	     30.14630610	     -6.80222070	     -5.88928314	     10.60822712	      0.18514849	    -30.54750238	      3.30904754	     -6.83874020	    -20.74810213	     -2.48841449	      3.36486080	    -54.98251459	    -22.69257440	    -67.47456679	    148.11249532	    100.14536663	    -16.65202585	    -55.31106413	    -35.86470120	    145.50573789	    108.88907143
      1.20000000	     -7.35959246	      0.00900416	      1.06960883	     -0.36626912	      1.06054579	     -0.57933449	     27.84965741	     -4.10718127	     -5.97026287	     12.33898151	      0.21535585	    -25.28088774	     -0.25197084	     -6.99905346	     30.93587672	     -6.74982941	     -4.62821189	     13.82096151	      0.24122128	    -30.76588273	      2.66999547	     -6.99905346	    -20.73634760	     -2.47518773	      2.85172541	    -56.07728795	    -21.79628738	    -68.95227537	    148.81434877	    102.71593794	    -20.98092191	    -57.14358878	    -42.44637600	    146.75725794	    108.79398656
      1.21000000	     -6.94378311	     -0.00087666	      1.28646667	     -0.35434371	      1.03292174	     -0.57943328	     28.12876179	     -4.15133727	     -5.70933791	     14.07555060	      0.24566470	    -26.43051979	     -0.30145500	     -7.15745441	     31.71873188	     -6.65493125	     -3.37789997	     17.02582500	      0.29715670	    -31.97749951	      2.55380822	     -7.15745441	    -20.69670606	     -2.46259733	      2.37745086	    -56.80418978	    -21.00369080	    -70.04228511	    149.21902337	    105.34758563	    -25.43138919	    -58.62270013	    -49.00961606	    147.75109094	    108.82654027
      1.22000000	     -6.52994347	     -0.05439842	      1.43565421	     -0.34246775	      1.00455600	     -0.57968092	     28.41243644	     -4.07871566	     -4.84998600	     16.02999590	      0.27977621	    -26.06602500	     -1.16784990	     -7.23498155	     32.43954148	     -6.51790720	     -2.14483026	     20.01944308	      0.34940520	    -33.57980553	      2.51471471	     -7.23498155	    -20.56478160	     -2.40949377	      2.30157282	    -57.41945282	    -19.99763320	    -70.93691741	    149.44405844	    108.34928313	    -28.38896786	    -60.01422355	    -53.76079225	    148.29595883	    109.31890110
      1.23000000	     -6.41012617	      0.00011260	      1.66197346	     -0.33088415	      0.97532292	     -0.57998477	     28.87556860	     -4.04880517	     -3.52489172	     19.22283397	      0.33550174	    -17.86450749	     -2.93042105	     -7.30254188	     33.52835435	     -6.18697119	     -1.18049137	     24.03625507	      0.41951179	    -29.97329542	      1.11441872	     -7.30254188	    -20.05076353	     -2.50708629	      2.20384049	    -57.47697446	    -18.91131863	    -71.12664463	    149.57311010	    110.42042996	    -30.11662758	    -61.18284961	    -57.02983305	    148.64306841	    110.06637551
      1.24000000	     -6.44224737	     -0.04157913	      1.83407101	     -0.32024824	      0.94566160	     -0.58024580	     29.64330581	     -3.85632829	     -2.31929719	     24.01177562	      0.41908454	     -2.17923850	     -4.46894467	     -7.34792739	     34.93899149	     -5.98050642	     -0.42980152	     30.11541542	      0.52561315	    -16.40738834	     -1.23343248	     -7.34792739	    -19.37431985	     -2.49913282	      2.37920869	    -57.08319084	    -17.86638662	    -70.94154774	    149.65332600	    111.76368878	    -29.49542345	    -62.29148162	    -57.38915644	    148.82694222	    110.41074701
      1.25000000	     -6.68423010	     -0.48235865	      1.59521140	     -0.31199434	      0.91663523	     -0.58036506	     32.45585891	     -3.23576961	     -1.45057145	     31.47183142	      0.54928708	     11.24420625	     -5.70767214	     -7.37387454	     36.63216403	     -6.29655791	      0.41915215	     36.75109839	      0.64142767	      1.66589424	     -2.18853252	     -7.37387454	    -18.73150469	     -2.11875887	      2.82784541	    -55.61853045	    -17.56340122	    -69.92252831	    149.70782850	    109.97409214	    -27.22385408	    -62.55539540	    -55.63855045	    149.11626909	    108.72351305
      1.26000000	     -7.71144212	     -0.83043668	      1.16931813	     -0.30749284	      0.88907728	     -0.58100655	     39.06053274	     -2.63783210	     -0.07727791	     42.46899686	      0.74122383	     16.19204349	     -8.38543432	     -7.42238544	     39.58751328	     -6.14716544	      2.02409698	     42.57067832	      0.74299850	     13.11219315	     -4.47451604	     -7.42238544	    -17.43278150	     -1.65057430	      5.05544037	    -54.27486119	    -15.62651606	    -70.14923684	    149.72023708	    113.36423357	    -14.51214067	    -62.59823465	    -42.25996749	    148.38507020	    110.79904926
      1.27000000	     -9.64132113	     -0.80120022	      1.20739310	     -0.30452595	      0.86342324	     -0.58243634	     47.52542143	     -2.49760783	      1.38937326	     53.90747270	      0.94086289	     15.90176436	    -10.74068513	     -7.44684358	     44.63279800	     -4.91828242	      4.40947663	     48.77237390	      0.85123851	     16.87864632	     -8.05987589	     -7.44684358	    -15.55931688	     -1.66853700	      5.22946528	    -50.46793901	    -15.19974624	    -66.89957979	    149.70347976	    113.62730807	     -7.07270535	    -60.35065455	    -34.40534783	    148.14771429	    111.89810955
      1.28000000	    -11.64727375	     -1.36122066	      1.43716508	     -0.30077222	      0.84066998	     -0.58425491	     54.22212328	     -2.14537530	      1.79799212	     62.06397996	      1.08322080	     15.89286538	    -11.30498255	     -7.44866635	     50.97359379	     -3.97927022	      6.85648525	     56.45932481	      0.98540111	     17.50795970	    -10.66975337	     -7.44866635	    -13.85648982	     -0.98449774	      3.97164884	    -44.96822154	    -16.10708641	    -61.07570827	    149.62559644	    113.36713865	     -4.88898882	    -56.47966788	    -31.56507231	    148.49088945	    112.40061668
